#!OML:ASF G:\JayActor3\Patient Classification 1\Patient 1\Session 5\male.ASF
:FULLY-SPECIFIED
:DEGREES
302
root -3.44966 16.7153 -4.90514 441.984 96.6729 444.76
lowerback 2.52977 0.142965 6.86137
upperback 2.68677 0.332874 0.169268
thorax 1.39516 0.30062 -3.67587
lowerneck -10.1148 -1.19494 1.51705
upperneck 10.8318 -2.08237 2.23974
head 4.92373 -0.791934 0.30066
rclavicle 1.54804e-014 1.98785e-014
rhumerus -27.0499 -1.38799 -88.1662
rradius 29.9998
rwrist 1.60111
rhand -18.616 -5.34642
rfingers 7.12502
rthumb 7.67578 -35.1871
lclavicle 1.54804e-014 1.98785e-014
lhumerus -36.7484 10.059 79.164
lradius 25.4666
lwrist 12.4424
lhand -17.4459 15.6014
lfingers 7.12502
lthumb 8.80503 45.3977
rfemur -0.779251 1.81817 33.1941
rtibia 28.7831
rfoot -25.294 -13.244
rtoes 6.00407
lfemur -24.35 1.80249 -13.5753
ltibia 45.7181
lfoot -16.4275 13.1428
ltoes -13.5688
303
root -3.3009 16.7137 -4.90461 442.569 96.7672 445.206
lowerback 2.47044 0.161314 7.0088
upperback 2.68309 0.354654 0.176561
thorax 1.429 0.314988 -3.75092
lowerneck -10.1338 -1.18719 1.53809
upperneck 10.7468 -2.07249 2.22417
head 4.90016 -0.788976 0.293205
rclavicle 1.49089e-016 -3.57812e-015
rhumerus -26.7302 -0.934846 -88.2993
rradius 30.4527
rwrist 1.24486
rhand -18.6674 -5.44636
rfingers 7.12502
rthumb 7.62622 -35.2889
lclavicle 1.49089e-016 -3.57812e-015
lhumerus -36.9034 10.0794 79.1103
lradius 25.4911
lwrist 12.4612
lhand -17.5379 15.6149
lfingers 7.12502
lthumb 8.71627 45.4149
rfemur 0.0120665 1.67417 33.2959
rtibia 28.0751
rfoot -25.3294 -13.1676
rtoes 5.80023
lfemur -24.8174 2.08818 -13.7424
ltibia 43.5906
lfoot -16.4995 13.5947
ltoes -13.2952
304
root -3.15137 16.7126 -4.90472 443.046 96.8583 445.525
lowerback 2.38483 0.175287 7.14889
upperback 2.67643 0.368017 0.183438
thorax 1.47353 0.325269 -3.822
lowerneck -10.1333 -1.17288 1.54198
upperneck 10.6405 -2.05336 2.23525
head 4.86721 -0.780899 0.297626
rclavicle 1.44119e-015 9.14409e-015
rhumerus -26.4146 -0.5042 -88.4199
rradius 30.8898
rwrist 0.937948
rhand -18.759 -5.54289
rfingers 7.12502
rthumb 7.53778 -35.3886
lclavicle 1.44119e-015 9.14409e-015
lhumerus -37.0367 10.1294 79.0501
lradius 25.468
lwrist 12.4519
lhand -17.5966 15.6161
lfingers 7.12502
lthumb 8.6596 45.4185
rfemur 0.807898 1.50761 33.3805
rtibia 27.3229
rfoot -25.3302 -13.0809
rtoes 5.58289
lfemur -25.2479 2.38223 -13.9224
ltibia 41.4039
lfoot -16.5111 13.9443
ltoes -13.0401
305
root -3.00104 16.711 -4.90553 443.42 96.9512 445.728
lowerback 2.27588 0.185033 7.28626
upperback 2.66713 0.373391 0.192079
thorax 1.52751 0.331743 -3.88951
lowerneck -10.1403 -1.15779 1.54526
upperneck 10.5401 -2.03368 2.24884
head 4.83739 -0.772241 0.302893
rclavicle -3.03147e-015 -5.56597e-015
rhumerus -26.1039 -0.103283 -88.5232
rradius 31.3125
rwrist 0.703902
rhand -18.8303 -5.62294
rfingers 7.12502
rthumb 7.46896 -35.4711
lclavicle -3.03147e-015 -5.56597e-015
lhumerus -37.1519 10.2023 78.9869
lradius 25.4045
lwrist 12.4177
lhand -17.6225 15.6224
lfingers 7.12502
lthumb 8.63465 45.4258
rfemur 1.61001 1.31791 33.4523
rtibia 26.5321
rfoot -25.3022 -12.9753
rtoes 5.35771
lfemur -25.6444 2.67689 -14.1088
ltibia 39.1758
lfoot -16.456 14.1806
ltoes -12.893
306
root -2.84963 16.7086 -4.90721 443.747 97.0559 445.873
lowerback 2.14665 0.193208 7.43322
upperback 2.65553 0.374655 0.205704
thorax 1.59014 0.336569 -3.95705
lowerneck -10.152 -1.14241 1.5463
upperneck 10.445 -2.0137 2.26454
head 4.81003 -0.763253 0.309144
rclavicle 1.49089e-014 2.46493e-014
rhumerus -25.8026 0.256975 -88.6052
rradius 31.7205
rwrist 0.547734
rhand -18.8522 -5.69998
rfingers 7.12502
rthumb 7.44783 -35.5489
lclavicle 1.49089e-014 2.46493e-014
lhumerus -37.2479 10.2972 78.9213
lradius 25.2949
lwrist 12.3504
lhand -17.6198 15.6319
lfingers 7.12502
lthumb 8.63722 45.4352
rfemur 2.42452 1.10419 33.5205
rtibia 25.7003
rfoot -25.2412 -12.8429
rtoes 5.11852
lfemur -26.0099 2.96624 -14.2861
ltibia 36.9326
lfoot -16.3422 14.2735
ltoes -12.8578
307
root -2.69711 16.705 -4.90998 444.095 97.1805 446.034
lowerback 2.00293 0.202144 7.59907
upperback 2.64369 0.375381 0.227921
thorax 1.66083 0.341783 -4.02616
lowerneck -10.1723 -1.12938 1.55329
upperneck 10.3583 -1.99692 2.26934
head 4.78655 -0.756103 0.310758
rclavicle -1.11816e-014 -1.31198e-014
rhumerus -25.5151 0.578309 -88.6644
rradius 32.1217
rwrist 0.457225
rhand -18.7836 -5.79456
rfingers 7.12502
rthumb 7.51407 -35.6411
lclavicle -1.11816e-014 -1.31198e-014
lhumerus -37.3245 10.4112 78.8574
lradius 25.1401
lwrist 12.2509
lhand -17.6045 15.6567
lfingers 7.12502
lthumb 8.65206 45.4594
rfemur 3.25683 0.860701 33.5908
rtibia 24.8292
rfoot -25.1372 -12.677
rtoes 4.84628
lfemur -26.3492 3.24976 -14.4398
ltibia 34.7037
lfoot -16.1712 14.1942
ltoes -12.8719
308
root -2.54358 16.7004 -4.91377 444.474 97.329 446.23
lowerback 1.85354 0.213403 7.78882
upperback 2.6327 0.378341 0.258645
thorax 1.73621 0.348839 -4.09976
lowerneck -10.1922 -1.11925 1.56422
upperneck 10.2735 -1.98417 2.27028
head 4.76353 -0.750979 0.310251
rclavicle 6.95746e-015 1.59028e-015
rhumerus -25.2445 0.858843 -88.7053
rradius 32.5162
rwrist 0.410612
rhand -18.6467 -5.89097
rfingers 7.12502
rthumb 7.6462 -35.7327
lclavicle 6.95746e-015 1.59028e-015
lhumerus -37.3818 10.5381 78.7962
lradius 24.9418
lwrist 12.1165
lhand -17.5706 15.6793
lfingers 7.12502
lthumb 8.68469 45.4806
rfemur 4.11607 0.594377 33.6699
rtibia 23.9166
rfoot -24.9952 -12.4796
rtoes 4.5516
lfemur -26.6688 3.53416 -14.5635
ltibia 32.5256
lfoot -15.9226 13.9308
ltoes -12.9613
309
root -2.38945 16.6944 -4.91857 444.932 97.5052 446.511
lowerback 1.70871 0.227375 8.00584
upperback 2.62173 0.384959 0.299688
thorax 1.80989 0.358291 -4.1779
lowerneck -10.2094 -1.11142 1.57536
upperneck 10.1857 -1.97394 2.26717
head 4.73912 -0.747419 0.308302
rclavicle -4.96962e-016 -1.03368e-014
rhumerus -24.9944 1.11983 -88.7361
rradius 32.9008
rwrist 0.367421
rhand -18.5024 -5.96674
rfingers 7.12502
rthumb 7.78542 -35.8034
lclavicle -4.96962e-016 -1.03368e-014
lhumerus -37.4199 10.6858 78.7349
lradius 24.698
lwrist 11.9399
lhand -17.5292 15.6892
lfingers 7.12502
lthumb 8.72465 45.4889
rfemur 4.99837 0.307978 33.763
rtibia 22.9695
rfoot -24.806 -12.2595
rtoes 4.20916
lfemur -26.9825 3.8375 -14.6558
ltibia 30.4322
lfoot -15.5883 13.4775
ltoes -13.1165
310
root -2.23496 16.6872 -4.92396 445.477 97.7042 446.884
lowerback 1.56868 0.244629 8.24155
upperback 2.61309 0.395801 0.349219
thorax 1.88418 0.370463 -4.25758
lowerneck -10.23 -1.10454 1.5881
upperneck 10.0963 -1.96509 2.26247
head 4.71474 -0.744591 0.305489
rclavicle 5.1684e-015 1.31198e-014
rhumerus -24.7628 1.36774 -88.7648
rradius 33.2756
rwrist 0.303554
rhand -18.3845 -6.01585
rfingers 7.12502
rthumb 7.89927 -35.8483
lclavicle 5.1684e-015 1.31198e-014
lhumerus -37.4345 10.8517 78.674
lradius 24.4127
lwrist 11.7156
lhand -17.4924 15.6994
lfingers 7.12502
lthumb 8.76021 45.4976
rfemur 5.8983 0.0148514 33.8717
rtibia 21.9985
rfoot -24.5733 -12.0337
rtoes 3.82189
lfemur -27.2993 4.17304 -14.7222
ltibia 28.4545
lfoot -15.1993 12.8161
ltoes -13.3283
311
root -2.08045 16.6787 -4.92974 446.129 97.9145 447.37
lowerback 1.44177 0.266362 8.48179
upperback 2.6027 0.413331 0.403522
thorax 1.95035 0.385839 -4.33478
lowerneck -10.2452 -1.0971 1.60061
upperneck 9.99954 -1.95541 2.26035
head 4.68724 -0.741353 0.303622
rclavicle -3.47873e-016 -1.11319e-014
rhumerus -24.5547 1.60588 -88.7954
rradius 33.64
rwrist 0.209283
rhand -18.2982 -6.06241
rfingers 7.12502
rthumb 7.98254 -35.8917
lclavicle -3.47873e-016 -1.11319e-014
lhumerus -37.4327 11.0382 78.608
lradius 24.0923
lwrist 11.4441
lhand -17.4457 15.6891
lfingers 7.12502
lthumb 8.80528 45.4854
rfemur 6.80376 -0.279118 33.9865
rtibia 21.0211
rfoot -24.3005 -11.8151
rtoes 3.37663
lfemur -27.6245 4.53932 -14.7761
ltibia 26.6125
lfoot -14.7751 11.9724
ltoes -13.6344
312
root -1.92607 16.6694 -4.93572 446.893 98.1213 447.978
lowerback 1.33733 0.292369 8.71069
upperback 2.5907 0.438322 0.457254
thorax 2.00324 0.404282 -4.40617
lowerneck -10.2615 -1.08769 1.6089
upperneck 9.9019 -1.94352 2.26784
head 4.6598 -0.73656 0.305554
rclavicle 7.95139e-016 2.42517e-014
rhumerus -24.3686 1.83948 -88.8334
rradius 33.984
rwrist 0.0732166
rhand -18.2673 -6.0943
rfingers 7.12502
rthumb 8.01239 -35.9224
lclavicle 7.95139e-016 2.42517e-014
lhumerus -37.4175 11.2473 78.5312
lradius 23.7409
lwrist 11.1224
lhand -17.3843 15.6559
lfingers 7.12502
lthumb 8.86449 45.4497
rfemur 7.71145 -0.561494 34.0964
rtibia 20.0546
rfoot -23.9897 -11.6169
rtoes 2.87048
lfemur -27.9475 4.89783 -14.8204
ltibia 24.9203
lfoot -14.3848 10.9933
ltoes -13.8851
313
root -1.7716 16.6596 -4.94179 447.738 98.3089 448.685
lowerback 1.26171 0.320815 8.91065
upperback 2.58073 0.469073 0.505198
thorax 2.04262 0.424688 -4.46739
lowerneck -10.277 -1.07695 1.61695
upperneck 9.80144 -1.93049 2.28273
head 4.63144 -0.730776 0.309899
rclavicle 3.37934e-015 1.35174e-014
rhumerus -24.199 2.06547 -88.8796
rradius 34.3022
rwrist -0.0888378
rhand -18.3099 -6.0847
rfingers 7.12502
rthumb 7.97125 -35.9144
lclavicle 3.37934e-015 1.35174e-014
lhumerus -37.3925 11.4796 78.4405
lradius 23.3672
lwrist 10.7537
lhand -17.3207 15.6294
lfingers 7.12502
lthumb 8.9259 45.4206
rfemur 8.6257 -0.826534 34.1876
rtibia 19.1177
rfoot -23.6525 -11.4562
rtoes 2.28338
lfemur -28.2465 5.20461 -14.8546
ltibia 23.3814
lfoot -14.0553 9.94555
ltoes -14.0843
314
root -1.61697 16.6494 -4.94803 448.638 98.4679 449.469
lowerback 1.21714 0.350204 9.07333
upperback 2.57385 0.504035 0.543017
thorax 2.06798 0.446099 -4.51837
lowerneck -10.2949 -1.06432 1.62612
upperneck 9.70019 -1.916 2.30619
head 4.60334 -0.72366 0.316797
rclavicle 4.52235e-015 3.1408e-014
rhumerus -24.0414 2.27463 -88.9328
rradius 34.5864
rwrist -0.254188
rhand -18.3738 -6.05396
rfingers 7.12502
rthumb 7.90953 -35.886
lclavicle 4.52235e-015 3.1408e-014
lhumerus -37.357 11.7331 78.3336
lradius 22.974
lwrist 10.3416
lhand -17.256 15.6035
lfingers 7.12502
lthumb 8.98827 45.392
rfemur 9.54325 -1.05799 34.2528
rtibia 18.222
rfoot -23.2995 -11.3406
rtoes 1.63831
lfemur -28.5099 5.41626 -14.871
ltibia 22.0011
lfoot -13.7979 8.92113
ltoes -14.2361
315
root -1.4617 16.6387 -4.95459 449.603 98.5924 450.342
lowerback 1.19948 0.380369 9.19257
upperback 2.57327 0.542589 0.570388
thorax 2.08479 0.468394 -4.55601
lowerneck -10.3104 -1.05048 1.6324
upperneck 9.59091 -1.90012 2.33882
head 4.5725 -0.715545 0.327109
rclavicle 6.80837e-015 2.14687e-014
rhumerus -23.8937 2.47383 -88.9927
rradius 34.8294
rwrist -0.412645
rhand -18.4565 -6.0168
rfingers 7.12502
rthumb 7.82977 -35.8518
lclavicle 6.80837e-015 2.14687e-014
lhumerus -37.3113 12.0101 78.2119
lradius 22.5636
lwrist 9.89448
lhand -17.2022 15.583
lfingers 7.12502
lthumb 9.04027 45.3693
rfemur 10.4637 -1.24865 34.2848
rtibia 17.3802
rfoot -22.937 -11.2631
rtoes 0.927003
lfemur -28.7216 5.51608 -14.8647
ltibia 20.7842
lfoot -13.6089 8.00116
ltoes -14.3343
